<mxfile host="65bd71144e">
    <diagram name="Страница — 1" id="h8AnzWCXBsPaWdk4dMgH">
        <mxGraphModel dx="1177" dy="827" grid="1" gridSize="10" guides="1" tooltips="1" connect="1" arrows="1" fold="1" page="1" pageScale="1" pageWidth="827" pageHeight="1169" math="1" shadow="0">
            <root>
                <mxCell id="0"/>
                <mxCell id="1" parent="0"/>
                <mxCell id="P7Fcce9K3j6FbLcGQpMX-2" style="edgeStyle=none;html=1;" parent="1" target="P7Fcce9K3j6FbLcGQpMX-9" edge="1">
                    <mxGeometry relative="1" as="geometry">
                        <mxPoint x="400" y="70" as="sourcePoint"/>
                    </mxGeometry>
                </mxCell>
                <mxCell id="P7Fcce9K3j6FbLcGQpMX-3" value="Начало" style="strokeWidth=1;html=1;shape=mxgraph.flowchart.terminator;whiteSpace=wrap;strokeColor=default;gradientColor=none;" parent="1" vertex="1">
                    <mxGeometry x="327.5" y="20" width="150" height="52.5" as="geometry"/>
                </mxCell>
                <mxCell id="5" style="edgeStyle=orthogonalEdgeStyle;rounded=0;html=1;exitX=0.5;exitY=1;exitDx=0;exitDy=0;entryX=0.5;entryY=0;entryDx=0;entryDy=0;" parent="1" source="P7Fcce9K3j6FbLcGQpMX-9" target="P7Fcce9K3j6FbLcGQpMX-28" edge="1">
                    <mxGeometry relative="1" as="geometry"/>
                </mxCell>
                <mxCell id="P7Fcce9K3j6FbLcGQpMX-9" value="Из каждого столба матрицы C вычитаем его наименьший элемент&amp;nbsp;" style="rounded=0;whiteSpace=wrap;html=1;strokeColor=default;strokeWidth=1;fontSize=12;gradientColor=none;" parent="1" vertex="1">
                    <mxGeometry x="297.5" y="100" width="205" height="80" as="geometry"/>
                </mxCell>
                <mxCell id="6" style="edgeStyle=orthogonalEdgeStyle;rounded=0;html=1;exitX=0.5;exitY=1;exitDx=0;exitDy=0;" parent="1" source="P7Fcce9K3j6FbLcGQpMX-28" target="P7Fcce9K3j6FbLcGQpMX-29" edge="1">
                    <mxGeometry relative="1" as="geometry"/>
                </mxCell>
                <mxCell id="P7Fcce9K3j6FbLcGQpMX-28" value="Из каждой строки полученной матрицы вычитаем ее &lt;br&gt;наименьший элемент" style="rounded=0;whiteSpace=wrap;html=1;strokeColor=default;strokeWidth=1;fontSize=12;gradientColor=none;" parent="1" vertex="1">
                    <mxGeometry x="297.5" y="210" width="205" height="80" as="geometry"/>
                </mxCell>
                <mxCell id="P7Fcce9K3j6FbLcGQpMX-38" style="edgeStyle=orthogonalEdgeStyle;rounded=0;orthogonalLoop=1;jettySize=auto;html=1;exitX=0.5;exitY=1;exitDx=0;exitDy=0;entryX=0.5;entryY=0;entryDx=0;entryDy=0;" parent="1" target="P7Fcce9K3j6FbLcGQpMX-30" edge="1">
                    <mxGeometry relative="1" as="geometry">
                        <mxPoint x="399.9999999999998" y="430" as="sourcePoint"/>
                    </mxGeometry>
                </mxCell>
                <mxCell id="9" style="edgeStyle=orthogonalEdgeStyle;rounded=0;html=1;exitX=0.5;exitY=1;exitDx=0;exitDy=0;entryX=0.5;entryY=0;entryDx=0;entryDy=0;" parent="1" source="P7Fcce9K3j6FbLcGQpMX-29" target="P7Fcce9K3j6FbLcGQpMX-30" edge="1">
                    <mxGeometry relative="1" as="geometry"/>
                </mxCell>
                <mxCell id="P7Fcce9K3j6FbLcGQpMX-29" value="Просматриваем матрицу стоимостей по столбам сверху вниз в поисках первого нуля, в одной строке с которым нет 0*. Если нуль найден, отмечаем его 0*" style="rounded=0;whiteSpace=wrap;html=1;strokeColor=default;strokeWidth=1;fontSize=12;gradientColor=none;" parent="1" vertex="1">
                    <mxGeometry x="297.5" y="320" width="205" height="80" as="geometry"/>
                </mxCell>
                <mxCell id="4" style="edgeStyle=orthogonalEdgeStyle;rounded=0;html=1;exitX=0.5;exitY=1;exitDx=0;exitDy=0;entryX=0.5;entryY=0;entryDx=0;entryDy=0;" parent="1" source="P7Fcce9K3j6FbLcGQpMX-30" target="P7Fcce9K3j6FbLcGQpMX-31" edge="1">
                    <mxGeometry relative="1" as="geometry">
                        <Array as="points">
                            <mxPoint x="400" y="570"/>
                            <mxPoint x="400" y="570"/>
                        </Array>
                    </mxGeometry>
                </mxCell>
                <mxCell id="P7Fcce9K3j6FbLcGQpMX-30" value="k - &amp;nbsp;число нулей в СНН" style="rounded=0;whiteSpace=wrap;html=1;strokeColor=default;strokeWidth=1;fontSize=12;gradientColor=none;" parent="1" vertex="1">
                    <mxGeometry x="297.5" y="430" width="205" height="80" as="geometry"/>
                </mxCell>
                <mxCell id="7" style="edgeStyle=orthogonalEdgeStyle;rounded=0;html=1;exitX=0;exitY=0.5;exitDx=0;exitDy=0;entryX=0.5;entryY=0;entryDx=0;entryDy=0;" parent="1" source="P7Fcce9K3j6FbLcGQpMX-31" target="P7Fcce9K3j6FbLcGQpMX-44" edge="1">
                    <mxGeometry relative="1" as="geometry"/>
                </mxCell>
                <mxCell id="8" style="edgeStyle=orthogonalEdgeStyle;rounded=0;html=1;exitX=1;exitY=0.5;exitDx=0;exitDy=0;" parent="1" source="P7Fcce9K3j6FbLcGQpMX-31" target="P7Fcce9K3j6FbLcGQpMX-32" edge="1">
                    <mxGeometry relative="1" as="geometry"/>
                </mxCell>
                <mxCell id="P7Fcce9K3j6FbLcGQpMX-31" value="k = n ?" style="rhombus;whiteSpace=wrap;html=1;" parent="1" vertex="1">
                    <mxGeometry x="295" y="570" width="210" height="80" as="geometry"/>
                </mxCell>
                <mxCell id="P7Fcce9K3j6FbLcGQpMX-41" style="edgeStyle=orthogonalEdgeStyle;rounded=0;orthogonalLoop=1;jettySize=auto;html=1;exitX=0.5;exitY=1;exitDx=0;exitDy=0;entryX=0.5;entryY=0;entryDx=0;entryDy=0;" parent="1" source="P7Fcce9K3j6FbLcGQpMX-32" target="P7Fcce9K3j6FbLcGQpMX-33" edge="1">
                    <mxGeometry relative="1" as="geometry"/>
                </mxCell>
                <mxCell id="P7Fcce9K3j6FbLcGQpMX-32" value="&amp;nbsp;Записываем opt решение:&lt;br&gt;$$x_{ij}^{opt} = &lt;br&gt;\begin{cases}&lt;br&gt;1, \: \text{если в позиции&amp;nbsp;&lt;br&gt;&amp;nbsp;(i, j)} \\ \text{матрицы C стоит 0*}, \\&lt;br&gt;0,\:&amp;nbsp;\text{иначе}&lt;br&gt;\end{cases}$$" style="rounded=0;whiteSpace=wrap;html=1;strokeColor=default;strokeWidth=1;fontSize=12;gradientColor=none;" parent="1" vertex="1">
                    <mxGeometry x="477.5" y="660" width="205" height="90" as="geometry"/>
                </mxCell>
                <mxCell id="P7Fcce9K3j6FbLcGQpMX-42" style="edgeStyle=orthogonalEdgeStyle;rounded=0;orthogonalLoop=1;jettySize=auto;html=1;exitX=0.5;exitY=1;exitDx=0;exitDy=0;entryX=0.5;entryY=0;entryDx=0;entryDy=0;" parent="1" source="P7Fcce9K3j6FbLcGQpMX-33" target="P7Fcce9K3j6FbLcGQpMX-34" edge="1">
                    <mxGeometry relative="1" as="geometry"/>
                </mxCell>
                <mxCell id="P7Fcce9K3j6FbLcGQpMX-33" value="$$f^{opt} = f(x^{opt})$$" style="rounded=0;whiteSpace=wrap;html=1;strokeColor=default;strokeWidth=1;fontSize=12;gradientColor=none;" parent="1" vertex="1">
                    <mxGeometry x="477.5" y="780" width="205" height="80" as="geometry"/>
                </mxCell>
                <mxCell id="P7Fcce9K3j6FbLcGQpMX-43" style="edgeStyle=orthogonalEdgeStyle;rounded=0;orthogonalLoop=1;jettySize=auto;html=1;exitX=0.5;exitY=1;exitDx=0;exitDy=0;" parent="1" source="P7Fcce9K3j6FbLcGQpMX-34" target="P7Fcce9K3j6FbLcGQpMX-35" edge="1">
                    <mxGeometry relative="1" as="geometry"/>
                </mxCell>
                <mxCell id="P7Fcce9K3j6FbLcGQpMX-34" value="$$x^{opt}, f^{opt}$$" style="shape=parallelogram;perimeter=parallelogramPerimeter;whiteSpace=wrap;html=1;fixedSize=1;" parent="1" vertex="1">
                    <mxGeometry x="482.5" y="890" width="200" height="70" as="geometry"/>
                </mxCell>
                <mxCell id="P7Fcce9K3j6FbLcGQpMX-35" value="Конец" style="strokeWidth=1;html=1;shape=mxgraph.flowchart.terminator;whiteSpace=wrap;strokeColor=default;gradientColor=none;" parent="1" vertex="1">
                    <mxGeometry x="507.5" y="1000" width="150" height="52.5" as="geometry"/>
                </mxCell>
                <mxCell id="P7Fcce9K3j6FbLcGQpMX-47" style="edgeStyle=orthogonalEdgeStyle;rounded=0;orthogonalLoop=1;jettySize=auto;html=1;exitX=0.5;exitY=1;exitDx=0;exitDy=0;entryX=0.5;entryY=0;entryDx=0;entryDy=0;" parent="1" source="P7Fcce9K3j6FbLcGQpMX-44" target="P7Fcce9K3j6FbLcGQpMX-46" edge="1">
                    <mxGeometry relative="1" as="geometry"/>
                </mxCell>
                <mxCell id="P7Fcce9K3j6FbLcGQpMX-44" value="Выделяем &quot;+&quot; столбцы с 0*" style="rounded=0;whiteSpace=wrap;html=1;strokeColor=default;strokeWidth=1;fontSize=12;gradientColor=none;" parent="1" vertex="1">
                    <mxGeometry x="122.5" y="670" width="205" height="80" as="geometry"/>
                </mxCell>
                <mxCell id="P7Fcce9K3j6FbLcGQpMX-46" value="А" style="ellipse;whiteSpace=wrap;html=1;aspect=fixed;" parent="1" vertex="1">
                    <mxGeometry x="185" y="810" width="80" height="80" as="geometry"/>
                </mxCell>
                <mxCell id="3" style="edgeStyle=orthogonalEdgeStyle;html=1;exitX=0;exitY=0.5;exitDx=0;exitDy=0;rounded=0;" parent="1" source="2" edge="1">
                    <mxGeometry relative="1" as="geometry">
                        <mxPoint x="400" y="540" as="targetPoint"/>
                        <Array as="points">
                            <mxPoint x="90" y="970"/>
                            <mxPoint x="90" y="540"/>
                        </Array>
                    </mxGeometry>
                </mxCell>
                <mxCell id="2" value="Б" style="ellipse;whiteSpace=wrap;html=1;aspect=fixed;" parent="1" vertex="1">
                    <mxGeometry x="185" y="930" width="80" height="80" as="geometry"/>
                </mxCell>
                <mxCell id="10" value="Да" style="text;html=1;align=center;verticalAlign=middle;resizable=0;points=[];autosize=1;strokeColor=none;fillColor=none;" parent="1" vertex="1">
                    <mxGeometry x="520" y="575" width="40" height="30" as="geometry"/>
                </mxCell>
            </root>
        </mxGraphModel>
    </diagram>
</mxfile>